osim_states
version=1
nRows=4
nColumns=185
inDegrees=yes

# SIMM Motion File Header:
name osim_states
datacolumns 185
datarows 4
otherdata 1
range 0.10853827 0.10898287
endheader
time	platform_rx	platform_ry	platform_rz	platform_ty	pelvis_tilt	pelvis_list	pelvis_rotation	pelvis_tx	pelvis_ty	pelvis_tz	hip_flexion_r	hip_adduction_r	hip_rotation_r	knee_angle_r	patella_r_constrained_knee_angle	ankle_angle_r	subtalar_angle_r	mtp_angle_r	hip_flexion_l	hip_adduction_l	hip_rotation_l	knee_angle_l	patella_l_constrained_knee_angle	ankle_angle_l	subtalar_angle_l	mtp_angle_l	lumbar_extension	lumbar_bending	lumbar_rotation	arm_flex_r	arm_add_r	arm_rot_r	elbow_flex_r	pro_sup_r	wrist_flex_r	wrist_dev_r	arm_flex_l	arm_add_l	arm_rot_l	elbow_flex_l	pro_sup_l	wrist_flex_l	wrist_dev_l	platform_rx_u	platform_ry_u	platform_rz_u	platform_ty_u	pelvis_tilt_u	pelvis_list_u	pelvis_rotation_u	pelvis_tx_u	pelvis_ty_u	pelvis_tz_u	hip_flexion_r_u	hip_adduction_r_u	hip_rotation_r_u	knee_angle_r_u	patella_r_constrained_knee_angle_u	ankle_angle_r_u	subtalar_angle_r_u	mtp_angle_r_u	hip_flexion_l_u	hip_adduction_l_u	hip_rotation_l_u	knee_angle_l_u	patella_l_constrained_knee_angle_u	ankle_angle_l_u	subtalar_angle_l_u	mtp_angle_l_u	lumbar_extension_u	lumbar_bending_u	lumbar_rotation_u	arm_flex_r_u	arm_add_r_u	arm_rot_r_u	elbow_flex_r_u	pro_sup_r_u	wrist_flex_r_u	wrist_dev_r_u	arm_flex_l_u	arm_add_l_u	arm_rot_l_u	elbow_flex_l_u	pro_sup_l_u	wrist_flex_l_u	wrist_dev_l_u	glut_med1_r.activation	glut_med1_r.fiber_length	glut_med2_r.activation	glut_med2_r.fiber_length	glut_med3_r.activation	glut_med3_r.fiber_length	glut_min1_r.activation	glut_min1_r.fiber_length	glut_min2_r.activation	glut_min2_r.fiber_length	glut_min3_r.activation	glut_min3_r.fiber_length	semimem_r.activation	semimem_r.fiber_length	semiten_r.activation	semiten_r.fiber_length	bifemlh_r.activation	bifemlh_r.fiber_length	bifemsh_r.activation	bifemsh_r.fiber_length	sar_r.activation	sar_r.fiber_length	add_long_r.activation	add_long_r.fiber_length	add_brev_r.activation	add_brev_r.fiber_length	add_mag1_r.activation	add_mag1_r.fiber_length	add_mag2_r.activation	add_mag2_r.fiber_length	add_mag3_r.activation	add_mag3_r.fiber_length	tfl_r.activation	tfl_r.fiber_length	pect_r.activation	pect_r.fiber_length	grac_r.activation	grac_r.fiber_length	glut_max1_r.activation	glut_max1_r.fiber_length	glut_max2_r.activation	glut_max2_r.fiber_length	glut_max3_r.activation	glut_max3_r.fiber_length	iliacus_r.activation	iliacus_r.fiber_length	psoas_r.activation	psoas_r.fiber_length	quad_fem_r.activation	quad_fem_r.fiber_length	gem_r.activation	gem_r.fiber_length	peri_r.activation	peri_r.fiber_length	rect_fem_r.activation	rect_fem_r.fiber_length	vas_med_r.activation	vas_med_r.fiber_length	vas_int_r.activation	vas_int_r.fiber_length	vas_lat_r.activation	vas_lat_r.fiber_length	med_gas_r.activation	med_gas_r.fiber_length	lat_gas_r.activation	lat_gas_r.fiber_length	soleus_r.activation	soleus_r.fiber_length	tib_post_r.activation	tib_post_r.fiber_length	flex_dig_r.activation	flex_dig_r.fiber_length	flex_hal_r.activation	flex_hal_r.fiber_length	tib_ant_r.activation	tib_ant_r.fiber_length	per_brev_r.activation	per_brev_r.fiber_length	per_long_r.activation	per_long_r.fiber_length	per_tert_r.activation	per_tert_r.fiber_length	ext_dig_r.activation	ext_dig_r.fiber_length	ext_hal_r.activation	ext_hal_r.fiber_length	ercspn_r.activation	ercspn_r.fiber_length	ercspn_l.activation	ercspn_l.fiber_length	intobl_r.activation	intobl_r.fiber_length	intobl_l.activation	intobl_l.fiber_length	extobl_r.activation	extobl_r.fiber_length	extobl_l.activation	extobl_l.fiber_length
      0.10853827	      0.00000000	     -0.00000000	     -0.00000000	      0.00000000	    -12.12821040	     -3.32811324	      7.36910619	     -0.43432654	      0.87926264	      0.37601117	     53.83087302	      7.53457715	     -5.45411819	    -61.07190327	    -61.07190327	     17.03220775	    -12.19360788	      0.00001318	     52.13915936	     -0.00000000	     -9.99811353	   -101.98648811	   -101.98648811	      6.49999992	      0.00000000	     -0.00000000	    -22.66568303	      1.92231126	      1.59267391	      0.00000000	     -8.91003344	      0.00000000	     72.06682857	     46.23690339	      0.00000000	      4.87402477	     -0.00000000	     -8.91003344	      0.00000000	     72.06682857	     46.23690339	      0.00000000	      4.87402477	      0.00000000	     -0.00000000	     -0.00000000	      0.00000000	     12.88142264	   -118.94621000	   -154.87121722	     -0.24185534	     -1.29988806	      0.57637204	    197.98074199	    227.22150546	    -42.58031307	   -263.75865589	   -263.75865589	     26.26305619	    -62.55958206	     -0.00000000	      0.00000000	     -0.00000000	      0.00000000	     -0.00000000	      0.00000000	      0.00000000	      0.00000000	     -0.00000000	   -189.10366221	     44.91403477	    208.49701230	      0.00000000	     -0.00000000	      0.00000000	     -0.00000000	      0.00000000	      0.00000000	     -0.00000000	      0.00000000	      0.00000000	      0.00000000	     -0.00000000	      0.00000000	      0.00000000	     -0.00000000	      0.19303512	      0.05592265	      0.23105324	      0.10164940	      0.41161768	      0.08677741	      0.10169134	      0.07340152	      0.18496366	      0.06604551	      0.37335924	      0.04804056	      0.12218295	      0.06752918	      0.43167769	      0.23091763	      0.31516924	      0.11536014	      0.17114020	      0.15388722	      0.01983157	      0.43599375	      0.01909189	      0.08246482	      0.01909189	      0.11511554	      0.01948897	      0.07192687	      0.03608564	      0.10645149	      0.11020437	      0.14608532	      0.02577974	      0.08444177	      0.01909189	      0.05079211	      0.01909189	      0.32477303	      0.17785149	      0.11561613	      0.17760028	      0.13006381	      0.14978980	      0.15326788	      0.01909189	      0.06964798	      0.01909189	      0.06269778	      0.17155885	      0.05629544	      0.34238847	      0.02787946	      0.60317049	      0.03173447	      0.26056727	      0.11358210	      0.39921452	      0.09757132	      0.46017936	      0.09973363	      0.41558278	      0.09311987	      0.36145152	      0.05256529	      0.38456417	      0.05740745	      0.63953784	      0.05619871	      0.01000000	      0.04176446	      0.01000000	      0.03965046	      0.01000000	      0.04873944	      0.13882191	      0.07374134	      0.01000000	      0.04811652	      0.01000000	      0.05068474	      0.01000000	      0.07496957	      0.01000000	      0.08914154	      0.01000000	      0.09961195	      0.13506887	      0.13389187	      0.27336866	      0.13679948	      0.01909189	      0.07723914	      0.03261074	      0.08195743	      0.07045587	      0.10724455	      0.03727519	      0.10814492
      0.10866803	      0.00000000	     -0.00000000	     -0.00000000	      0.00000000	    -12.12654756	     -3.34354169	      7.34899935	     -0.43435795	      0.87909401	      0.37608599	     53.85656295	      7.56406609	     -5.45964246	    -61.10610764	    -61.10610764	     17.03559323	    -12.20173488	      0.00001318	     52.13915936	     -0.00000000	     -9.99811353	   -101.98648811	   -101.98648811	      6.49999992	      0.00000000	     -0.00000000	    -22.69021983	      1.92811366	      1.61973348	      0.00000000	     -8.91003344	      0.00000000	     72.06682857	     46.23690339	      0.00000000	      4.87402477	     -0.00000000	     -8.91003344	      0.00000000	     72.06682857	     46.23690339	      0.00000000	      4.87402477	      0.00000000	     -0.00000000	     -0.00000000	      0.00000000	     12.74868979	   -118.85915070	   -155.04403270	     -0.24223793	     -1.29925927	      0.57685401	    197.98942666	    227.30424691	    -42.56773022	   -263.44818198	   -263.44818198	     25.91853571	    -62.70643852	     -0.00000000	      0.00000000	     -0.00000000	      0.00000000	     -0.00000000	      0.00000000	      0.00000000	      0.00000000	     -0.00000000	   -189.09241764	     44.52091949	    208.58375215	      0.00000000	     -0.00000000	      0.00000000	     -0.00000000	      0.00000000	      0.00000000	     -0.00000000	      0.00000000	      0.00000000	      0.00000000	     -0.00000000	      0.00000000	      0.00000000	     -0.00000000	      0.19294276	      0.05593389	      0.23098117	      0.10166918	      0.41161582	      0.08680206	      0.10163019	      0.07340827	      0.18488406	      0.06605728	      0.37333459	      0.04805685	      0.12201764	      0.06752021	      0.43158034	      0.23090370	      0.31512015	      0.11535805	      0.17098863	      0.15386874	      0.01981469	      0.43596750	      0.01907631	      0.08242270	      0.01907631	      0.11508602	      0.01947269	      0.07191242	      0.03603879	      0.10644772	      0.11009624	      0.14609679	      0.02575219	      0.08443734	      0.01907631	      0.05076231	      0.01907631	      0.32474054	      0.17772544	      0.11564055	      0.17745414	      0.13008775	      0.14958577	      0.15328031	      0.01907631	      0.06962739	      0.01907631	      0.06267419	      0.17131756	      0.05630082	      0.34229186	      0.02788979	      0.60315810	      0.03175373	      0.26061463	      0.11359138	      0.39939339	      0.09759166	      0.46037812	      0.09975510	      0.41576758	      0.09313998	      0.36137965	      0.05255985	      0.38450213	      0.05740206	      0.63970139	      0.05620311	      0.01000000	      0.04176672	      0.01000000	      0.03965261	      0.01000000	      0.04874185	      0.13867587	      0.07373725	      0.01000000	      0.04811325	      0.01000000	      0.05068359	      0.01000000	      0.07496675	      0.01000000	      0.08913641	      0.01000000	      0.09960821	      0.13520637	      0.13389552	      0.27343232	      0.13682160	      0.01907631	      0.07722593	      0.03257052	      0.08192958	      0.07033722	      0.10719710	      0.03722605	      0.10814186
      0.10879779	      0.00000000	     -0.00000000	     -0.00000000	      0.00000000	    -12.12490194	     -3.35895885	      7.32887011	     -0.43438940	      0.87892546	      0.37616088	     53.88225406	      7.59356575	     -5.46516512	    -61.14027181	    -61.14027181	     17.03893407	    -12.20988056	      0.00001318	     52.13915936	     -0.00000000	     -9.99811353	   -101.98648811	   -101.98648811	      6.49999992	      0.00000000	     -0.00000000	    -22.71475513	      1.93386507	      1.64680426	      0.00000000	     -8.91003344	      0.00000000	     72.06682857	     46.23690339	      0.00000000	      4.87402477	     -0.00000000	     -8.91003344	      0.00000000	     72.06682857	     46.23690339	      0.00000000	      4.87402477	      0.00000000	     -0.00000000	     -0.00000000	      0.00000000	     12.61587740	   -118.77222821	   -155.21655042	     -0.24262047	     -1.29863192	      0.57733533	    197.99886715	    227.38670184	    -42.55549759	   -263.13904001	   -263.13904001	     25.57541191	    -62.84576704	     -0.00000000	      0.00000000	     -0.00000000	      0.00000000	     -0.00000000	      0.00000000	      0.00000000	      0.00000000	     -0.00000000	   -189.08070010	     44.12802683	    208.66970697	      0.00000000	     -0.00000000	      0.00000000	     -0.00000000	      0.00000000	      0.00000000	     -0.00000000	      0.00000000	      0.00000000	      0.00000000	     -0.00000000	      0.00000000	      0.00000000	     -0.00000000	      0.19285003	      0.05594512	      0.23090935	      0.10168894	      0.41161449	      0.08682670	      0.10156882	      0.07341501	      0.18480421	      0.06606904	      0.37331023	      0.04807313	      0.12185246	      0.06751126	      0.43148306	      0.23088980	      0.31507115	      0.11535597	      0.17083716	      0.15385028	      0.01979784	      0.43594127	      0.01906076	      0.08238058	      0.01906076	      0.11505649	      0.01945644	      0.07189796	      0.03599204	      0.10644394	      0.10998823	      0.14610825	      0.02572469	      0.08443291	      0.01906076	      0.05073250	      0.01906076	      0.32470809	      0.17759957	      0.11566497	      0.17730825	      0.13011169	      0.14938211	      0.15329272	      0.01906076	      0.06960681	      0.01906076	      0.06265060	      0.17107738	      0.05630621	      0.34219670	      0.02790013	      0.60314719	      0.03177298	      0.26066186	      0.11360063	      0.39957215	      0.09761197	      0.46057676	      0.09977653	      0.41595228	      0.09316006	      0.36130765	      0.05255441	      0.38443993	      0.05739665	      0.63986444	      0.05620749	      0.01000000	      0.04176898	      0.01000000	      0.03965476	      0.01000000	      0.04874425	      0.13853016	      0.07373320	      0.01000000	      0.04810996	      0.01000000	      0.05068242	      0.01000000	      0.07496394	      0.01000000	      0.08913130	      0.01000000	      0.09960450	      0.13534453	      0.13389920	      0.27349550	      0.13684369	      0.01906076	      0.07721282	      0.03253037	      0.08190163	      0.07021883	      0.10714967	      0.03717701	      0.10813878
      0.10898287	      0.00000000	     -0.00000000	     -0.00000000	      0.00000000	    -12.12258446	     -3.38093049	      7.30011895	     -0.43443436	      0.87868519	      0.37626780	     53.91890225	      7.63566272	     -5.47304000	    -61.18893454	    -61.18893454	     17.04362244	    -12.22153089	      0.00001318	     52.13915936	     -0.00000000	     -9.99811353	   -101.98648811	   -101.98648811	      6.49999992	      0.00000000	     -0.00000000	    -22.74974974	      1.94198072	      1.68543738	      0.00000000	     -8.91003344	      0.00000000	     72.06682857	     46.23690339	      0.00000000	      4.87402477	     -0.00000000	     -8.91003344	      0.00000000	     72.06682857	     46.23690339	      0.00000000	      4.87402477	      0.00000000	     -0.00000000	     -0.00000000	      0.00000000	     12.42629909	   -118.64848456	   -155.46210248	     -0.24316600	     -1.29773954	      0.57802074	    198.01356642	    227.50378972	    -42.53903603	   -262.70003946	   -262.70003946	     25.08532752	    -63.05040260	     -0.00000000	      0.00000000	     -0.00000000	      0.00000000	     -0.00000000	      0.00000000	      0.00000000	      0.00000000	     -0.00000000	   -189.06316994	     43.56800230	    208.79094597	      0.00000000	      0.00000000	      0.00000000	     -0.00000000	      0.00000000	      0.00000000	     -0.00000000	      0.00000000	      0.00000000	      0.00000000	     -0.00000000	      0.00000000	      0.00000000	     -0.00000000	      0.19271714	      0.05596109	      0.23080733	      0.10171710	      0.41161354	      0.08686182	      0.10148090	      0.07342459	      0.18468988	      0.06608579	      0.37327597	      0.04809633	      0.12161708	      0.06749853	      0.43134442	      0.23087001	      0.31500141	      0.11535304	      0.17062130	      0.15382400	      0.01977385	      0.43590391	      0.01903863	      0.08232050	      0.01903863	      0.11501435	      0.01943332	      0.07187734	      0.03592550	      0.10643855	      0.10983435	      0.14612456	      0.02568555	      0.08442658	      0.01903863	      0.05068997	      0.01903863	      0.32466187	      0.17742032	      0.11569977	      0.17710060	      0.13014580	      0.14909222	      0.15331040	      0.01903863	      0.06957747	      0.01903863	      0.06261696	      0.17073670	      0.05631393	      0.34206343	      0.02791489	      0.60313418	      0.03180043	      0.26072900	      0.11361378	      0.39982696	      0.09764089	      0.46085990	      0.09980705	      0.41621557	      0.09318863	      0.36120471	      0.05254662	      0.38435096	      0.05738893	      0.64009615	      0.05621370	      0.01000000	      0.04177220	      0.01000000	      0.03965784	      0.01000000	      0.04874767	      0.13832289	      0.07372752	      0.01000000	      0.04810524	      0.01000000	      0.05068073	      0.01000000	      0.07495996	      0.01000000	      0.08912406	      0.01000000	      0.09959926	      0.13554270	      0.13390448	      0.27358480	      0.13687514	      0.01903863	      0.07719431	      0.03247323	      0.08186160	      0.07005044	      0.10708203	      0.03710721	      0.10813434
